<svg width="258" height="607" viewBox="0 0 258 607" xmlns="http://www.w3.org/2000/svg"><title>Logo@2x</title><g id="Home" fill="none" fill-rule="evenodd"><g id="Bootstrap-screen-lg"><g id="Logo"><g id="van-den-eynde" fill="#EAB945"><path d="M.31 233.035c0-.96.528-1.76 1.585-2.402 1.055-.64 2.158-.96 3.31-.96 1.598 0 2.59.61 2.975 1.825l16.89 57.072 16.79-57.072c.44-1.216 1.383-1.825 2.83-1.825 1.193 0 2.31.35 3.346 1.046 1.037.697 1.555 1.49 1.555 2.376 0 .065-.015.162-.046.288-.034.126-.047.254-.047.38l-19.5 63.885c-.68 1.89-2.345 2.83-4.99 2.83-2.646 0-4.257-.925-4.833-2.784L.502 233.804c-.128-.383-.19-.64-.19-.77" id="Fill-12"/><path d="M49.347 296.54c0-.125.063-.38.19-.765l19.64-63.873c.562-1.87 2.194-2.807 4.89-2.807 2.697 0 4.33.944 4.894 2.827l19.708 64.105c0 .12.016.24.05.36.03.12.047.212.047.27 0 .842-.528 1.595-1.583 2.257-1.057.66-2.193.992-3.407.992-1.535 0-2.496-.605-2.88-1.816l-4.222-14.23H61.28l-4.205 14.18c-.378 1.245-1.353 1.866-2.92 1.866-1.133 0-2.218-.322-3.255-.962-1.037-.64-1.553-1.44-1.553-2.403zm13.932-19.405h21.41l-10.674-36.193-10.737 36.193z" id="Fill-13"/><path d="M107.304 297.022V232.46c0-1.857 1.344-2.787 4.03-2.787 1.345 0 2.48.4 3.408 1.202.925.8 1.837 2.097 2.734 3.89l23.894 46.79V232.46c0-.897.4-1.585 1.2-2.066.798-.48 1.743-.72 2.83-.72 1.086 0 2.03.24 2.832.72.797.48 1.2 1.17 1.2 2.066v64.562c0 .9-.403 1.603-1.2 2.115-.8.512-1.746.77-2.833.77-2.048 0-3.742-1.217-5.085-3.653l-24.95-48.326v49.094c0 .9-.4 1.603-1.2 2.115-.8.512-1.744.77-2.83.77-1.09 0-2.032-.258-2.83-.77-.802-.512-1.2-1.216-1.2-2.115" id="Fill-14"/><path d="M2.185 386.57v-64.66c0-.767.336-1.424 1.006-1.97.674-.543 1.552-.817 2.64-.817h16.985c6.27 0 11.29 1.683 15.066 5.047 3.775 3.36 5.662 8.66 5.662 15.9v28.342c0 7.238-1.887 12.538-5.66 15.9-3.776 3.364-8.797 5.045-15.067 5.045H5.83c-1.088 0-1.966-.272-2.64-.818-.67-.545-1.005-1.2-1.005-1.97zm8.06-4.516h12.57c4.03 0 7.15-1.136 9.356-3.41 2.21-2.272 3.312-5.684 3.312-10.232V340.07c0-4.55-1.103-7.958-3.31-10.232-2.208-2.273-5.326-3.412-9.357-3.412h-12.57v55.628z" id="Fill-15"/><path d="M56.498 386.474v-64.468c0-.897.366-1.6 1.104-2.113.734-.512 1.583-.77 2.543-.77h34.16c.895 0 1.584.354 2.062 1.058.48.706.723 1.538.723 2.5 0 1.025-.258 1.906-.768 2.64-.514.738-1.187 1.106-2.018 1.106H64.558v24.405h14.97c.83 0 1.502.336 2.016 1.008.51.674.767 1.49.767 2.45 0 .833-.24 1.586-.72 2.258-.48.672-1.166 1.01-2.062 1.01h-14.97v24.498h29.746c.83 0 1.504.37 2.018 1.105.51.736.768 1.62.768 2.64 0 .962-.242 1.795-.723 2.5-.478.704-1.167 1.057-2.063 1.057h-34.16c-.96 0-1.808-.256-2.542-.768-.738-.514-1.104-1.22-1.104-2.116" id="Fill-16"/><path d="M107.304 386.474V321.91c0-1.857 1.344-2.787 4.03-2.787 1.345 0 2.48.402 3.408 1.202.925.802 1.837 2.1 2.734 3.89l23.894 46.79V321.91c0-.895.4-1.585 1.2-2.064.798-.48 1.743-.723 2.83-.723 1.086 0 2.03.242 2.832.723.797.48 1.2 1.17 1.2 2.065v64.564c0 .897-.403 1.602-1.2 2.115-.8.51-1.746.767-2.833.767-2.048 0-3.742-1.218-5.085-3.652l-24.95-48.325v49.094c0 .897-.4 1.602-1.2 2.115-.8.51-1.744.767-2.83.767-1.09 0-2.032-.256-2.83-.768-.802-.514-1.2-1.22-1.2-2.116" id="Fill-17"/><path d="M2.185 478.064v-64.466c0-.897.366-1.6 1.102-2.113.736-.514 1.585-.77 2.543-.77h34.16c.897 0 1.586.354 2.066 1.058.478.705.72 1.535.72 2.497 0 1.027-.257 1.908-.767 2.64-.515.74-1.188 1.106-2.02 1.106H10.246v24.404h14.97c.83 0 1.502.338 2.013 1.01.514.672.768 1.487.768 2.45 0 .833-.238 1.586-.718 2.258-.48.672-1.168 1.007-2.063 1.007h-14.97v24.5H39.99c.832 0 1.505.37 2.02 1.106.51.738.766 1.62.766 2.642 0 .962-.242 1.793-.72 2.5-.48.704-1.17 1.055-2.065 1.055H5.83c-.958 0-1.807-.256-2.543-.768-.736-.514-1.102-1.217-1.102-2.116" id="Fill-18"/><path d="M49.825 414.077c0-.96.526-1.76 1.583-2.403 1.055-.638 2.126-.96 3.214-.96 1.152 0 2.11.708 2.878 2.115l16.89 32.955 16.793-32.956c.767-1.408 1.728-2.115 2.877-2.115 1.152 0 2.24.32 3.264.96 1.024.642 1.535 1.442 1.535 2.402 0 .514-.13 1.056-.385 1.634L78.61 452.798c-.127.193-.19.514-.19.96v24.307c0 .9-.4 1.602-1.2 2.115-.8.51-1.743.767-2.83.767-1.09 0-2.03-.256-2.832-.768-.8-.514-1.2-1.217-1.2-2.116v-24.306c0-.32-.095-.64-.288-.96L50.207 415.71c-.256-.577-.382-1.12-.382-1.633" id="Fill-19"/><path d="M107.304 478.064V413.5c0-1.855 1.344-2.785 4.03-2.785 1.345 0 2.48.4 3.408 1.202.925.8 1.837 2.097 2.734 3.89l23.894 46.79V413.5c0-.893.4-1.583 1.2-2.064.798-.48 1.743-.72 2.83-.72 1.086 0 2.03.24 2.832.72.797.48 1.2 1.17 1.2 2.065v64.564c0 .9-.403 1.602-1.2 2.115-.8.51-1.746.767-2.833.767-2.048 0-3.742-1.216-5.085-3.65l-24.95-48.327v49.094c0 .9-.4 1.602-1.2 2.115-.8.51-1.744.767-2.83.767-1.09 0-2.032-.256-2.83-.768-.802-.514-1.2-1.217-1.2-2.116" id="Fill-20"/><path d="M163.056 478.163V413.5c0-.767.336-1.424 1.008-1.97.673-.54 1.55-.815 2.64-.815h16.984c6.27 0 11.29 1.68 15.064 5.045 3.775 3.362 5.663 8.663 5.663 15.9v28.344c0 7.236-1.888 12.536-5.663 15.9-3.773 3.362-8.795 5.043-15.064 5.043h-16.985c-1.088 0-1.966-.272-2.64-.816-.67-.543-1.007-1.2-1.007-1.967zm8.062-4.517h12.57c4.03 0 7.147-1.136 9.356-3.41 2.206-2.274 3.31-5.686 3.31-10.232V431.66c0-4.547-1.104-7.958-3.31-10.232-2.21-2.273-5.327-3.412-9.356-3.412h-12.57v55.63z" id="Fill-21"/><path d="M217.37 478.064v-64.466c0-.897.367-1.6 1.105-2.113.732-.514 1.583-.77 2.543-.77h34.16c.893 0 1.582.354 2.064 1.058.48.705.72 1.535.72 2.497 0 1.027-.257 1.908-.77 2.64-.513.74-1.186 1.106-2.015 1.106H225.43v24.404h14.97c.83 0 1.503.338 2.016 1.01.51.672.766 1.487.766 2.45 0 .833-.24 1.586-.718 2.258-.48.672-1.17 1.007-2.065 1.007h-14.97v24.5h29.747c.83 0 1.502.37 2.016 1.106.512.738.77 1.62.77 2.642 0 .962-.242 1.793-.72 2.5-.483.704-1.172 1.055-2.066 1.055h-34.16c-.96 0-1.81-.256-2.542-.768-.738-.514-1.106-1.217-1.106-2.116" id="Fill-22"/></g><g id="tandlabo" fill="#4D4F53"><path d="M49.243 590.778H31.55l-4.473 14.62h-2.764l14.604-47.02h3.485l14.076 47.02h-2.76l-4.475-14.62zm-8.616-29.634h-.132l-8.29 27.395h16.512l-8.09-27.396z" id="Fill-24"/><path d="M63.442 558.377l20.456 42.675h.132v-42.675h2.763V605.4h-3.618l-20.522-42.676h-.132V605.4h-2.76v-47.023h3.682" id="Fill-25"/><path d="M94.348 558.377h10.72c9.934 0 16.906 4.215 16.906 23.51 0 19.297-8.025 23.512-16.905 23.512H94.347v-47.023zm10.72 44.782c10 0 14.142-6.85 14.142-21.272 0-14.422-3.354-21.27-14.14-21.27h-7.96v42.54h7.96z" id="Fill-26"/><path d="M128.477 558.377h2.762v44.52h19.667v2.502h-22.43v-47.023" id="Fill-27"/><path d="M177.143 590.778h-17.69l-4.475 14.62h-2.764l14.603-47.02h3.486l14.076 47.02h-2.763l-4.474-14.62zm-8.615-29.634h-.132l-8.287 27.395h16.508l-8.09-27.396z" id="Fill-28"/><path d="M188.12 558.377h12.63c9.208 0 12.3 4.74 12.3 11.722 0 6.32-3.488 9.878-8.682 10.537v.132c6.775.46 10.194 5.4 10.194 11.853 0 7.903-5.13 12.776-13.418 12.776H188.12v-47.023zm11.774 21.272c6.052 0 10.393-2.9 10.393-9.55 0-6.388-3.158-9.483-9.208-9.483h-10.195v19.032h9.01zm.264 23.51c7.63 0 11.642-2.83 11.642-10.604 0-8.364-5.064-10.668-11.774-10.668h-9.14v21.27h9.272z" id="Fill-29"/><path d="M249.812 581.888c0 20.612-8.486 24.302-15.13 24.302-9.01 0-15.195-6.06-15.195-24.302 0-18.243 6.578-24.302 15.196-24.302 9.34 0 15.13 6.06 15.13 24.302zm-27.562 0c0 12.91 2.632 22.06 12.433 22.06 8.617 0 12.365-7.112 12.365-22.06 0-12.71-2.83-22.063-12.365-22.063-9.21 0-12.433 9.154-12.433 22.063z" id="Fill-30"/><path d="M12.808 560.88H.31v-2.503h27.76v2.503H15.57v44.52h-2.764v-44.52" id="Fill-23"/></g><g id="symbol" fill="#4D4F53"><path d="M75.743 169.986c-.458 0-.915-.12-1.324-.357L3.452 128.61c-.82-.476-1.323-1.35-1.323-2.3V44.27c0-.948.504-1.823 1.323-2.296L74.42.95c.817-.475 1.827-.475 2.646 0l70.966 41.022c.818.473 1.322 1.348 1.322 2.296v82.043c0 .95-.504 1.824-1.322 2.3l-70.966 41.02c-.41.237-.866.356-1.323.356zM7.427 124.782l68.316 39.488 68.314-39.488V45.8L75.743 6.31 7.427 45.8v78.982z" id="Fill-31"/><path d="M50.536 129.648c-.218 0-.435-.03-.65-.087-.926-.253-1.62-1.024-1.78-1.974-1.997-12.108-3.715-24.806-5.103-37.744-1.366-12.747-2.7-26.245-3.966-40.12-.073-.8.25-1.588.864-2.108.62-.518 1.452-.702 2.223-.495L97.8 62.055c.774.21 1.398.778 1.674 1.53.277.75.17 1.59-.284 2.25-7.723 11.208-15.552 22.256-23.266 32.837-7.704 10.56-15.613 20.683-23.504 30.096-.476.564-1.17.878-1.884.878zM44.26 52.793c1.166 12.61 2.39 24.883 3.64 36.525 1.17 10.953 2.583 21.73 4.203 32.12 6.673-8.128 13.334-16.742 19.847-25.67 7.03-9.64 14.153-19.672 21.205-29.857L44.26 52.794z" id="Fill-32"/><path d="M103.02 129.648c-.727 0-1.43-.323-1.903-.9-7.77-9.474-15.6-19.612-23.27-30.132-7.61-10.44-15.506-21.462-23.47-32.76-.465-.66-.577-1.5-.304-2.26.274-.756.902-1.33 1.677-1.54l55.678-14.937c.766-.206 1.598-.028 2.21.486.616.513.943 1.293.88 2.09-1.1 13.643-2.362 27.13-3.752 40.087-1.395 12.993-3.186 25.72-5.326 37.83-.167.947-.868 1.71-1.8 1.954-.204.055-.414.08-.62.08zM60.432 65.9c7.258 10.27 14.444 20.282 21.39 29.81 6.492 8.907 13.098 17.535 19.684 25.712 1.72-10.384 3.185-21.176 4.366-32.165 1.268-11.81 2.427-24.064 3.455-36.474L60.433 65.9z" id="Fill-33"/></g></g></g></g></svg>