<svg width="258" height="607" viewBox="0 0 258 607" xmlns="http://www.w3.org/2000/svg"><title>Logo@2x</title><g id="Home" fill="none" fill-rule="evenodd"><g id="Bootstrap-screen-lg"><g id="Logo"><g id="van-den-eynde" fill="#EAB945"><path d="M.31 233.035c0-.96.528-1.76 1.585-2.403 1.055-.638 2.158-.96 3.31-.96 1.598 0 2.59.61 2.975 1.826l16.89 57.07 16.79-57.07c.44-1.216 1.383-1.825 2.83-1.825 1.193 0 2.31.35 3.346 1.046 1.037.697 1.555 1.49 1.555 2.376 0 .065-.015.16-.046.288-.034.126-.047.254-.047.38l-19.5 63.885c-.68 1.89-2.345 2.83-4.99 2.83-2.646 0-4.257-.926-4.833-2.784L.502 233.803c-.128-.382-.19-.638-.19-.768" id="Fill-12"/><path d="M49.347 296.54c0-.125.063-.38.19-.765l19.64-63.873c.562-1.87 2.194-2.807 4.89-2.807 2.697 0 4.33.944 4.894 2.826l19.708 64.107c0 .12.016.24.05.36.03.12.047.21.047.27 0 .842-.528 1.595-1.583 2.257-1.057.66-2.193.99-3.407.99-1.535 0-2.496-.604-2.88-1.814l-4.222-14.23H61.28l-4.205 14.18c-.378 1.245-1.353 1.865-2.92 1.865-1.133 0-2.218-.32-3.255-.96-1.037-.64-1.553-1.442-1.553-2.404zm13.932-19.405h21.41l-10.674-36.193-10.737 36.193z" id="Fill-13"/><path d="M107.304 297.022V232.46c0-1.857 1.344-2.787 4.03-2.787 1.345 0 2.48.4 3.408 1.202.925.8 1.837 2.097 2.734 3.89l23.894 46.788V232.46c0-.897.4-1.585 1.2-2.066.798-.48 1.743-.72 2.83-.72 1.086 0 2.03.24 2.832.72.797.48 1.2 1.17 1.2 2.065v64.562c0 .9-.403 1.602-1.2 2.115-.8.512-1.746.768-2.833.768-2.048 0-3.742-1.216-5.085-3.652l-24.95-48.325v49.094c0 .9-.4 1.602-1.2 2.115-.8.512-1.744.768-2.83.768-1.09 0-2.032-.256-2.83-.768-.802-.513-1.2-1.216-1.2-2.115" id="Fill-14"/><path d="M2.185 386.57v-64.66c0-.768.336-1.424 1.006-1.97.674-.544 1.552-.818 2.64-.818h16.985c6.27 0 11.29 1.683 15.066 5.048 3.775 3.36 5.662 8.66 5.662 15.9v28.342c0 7.238-1.887 12.538-5.66 15.9-3.776 3.364-8.797 5.045-15.067 5.045H5.83c-1.088 0-1.966-.272-2.64-.818-.67-.545-1.005-1.2-1.005-1.97zm8.06-4.517h12.57c4.03 0 7.15-1.135 9.356-3.41 2.21-2.27 3.312-5.683 3.312-10.23V340.07c0-4.55-1.103-7.958-3.31-10.233-2.208-2.272-5.326-3.41-9.357-3.41h-12.57v55.626z" id="Fill-15"/><path d="M56.498 386.474v-64.468c0-.897.366-1.6 1.104-2.113.734-.512 1.583-.77 2.543-.77h34.16c.895 0 1.584.354 2.062 1.058.48.706.723 1.538.723 2.5 0 1.024-.258 1.905-.768 2.64-.514.738-1.187 1.106-2.018 1.106H64.558v24.404h14.97c.83 0 1.502.335 2.016 1.007.51.674.767 1.49.767 2.452 0 .83-.24 1.583-.72 2.255-.48.673-1.166 1.01-2.062 1.01h-14.97v24.498h29.746c.83 0 1.504.37 2.018 1.106.51.736.768 1.62.768 2.64 0 .96-.242 1.795-.723 2.5-.478.704-1.167 1.057-2.063 1.057h-34.16c-.96 0-1.808-.256-2.542-.77-.738-.51-1.104-1.217-1.104-2.113" id="Fill-16"/><path d="M107.304 386.474V321.91c0-1.857 1.344-2.788 4.03-2.788 1.345 0 2.48.402 3.408 1.203.925.802 1.837 2.098 2.734 3.89l23.894 46.79V321.91c0-.896.4-1.585 1.2-2.064.798-.48 1.743-.724 2.83-.724 1.086 0 2.03.243 2.832.724.797.48 1.2 1.168 1.2 2.065v64.564c0 .896-.403 1.602-1.2 2.114-.8.513-1.746.77-2.833.77-2.048 0-3.742-1.22-5.085-3.653l-24.95-48.325v49.094c0 .896-.4 1.602-1.2 2.114-.8.513-1.744.77-2.83.77-1.09 0-2.032-.257-2.83-.77-.802-.512-1.2-1.218-1.2-2.114" id="Fill-17"/><path d="M2.185 478.064v-64.466c0-.897.366-1.6 1.102-2.113.736-.514 1.585-.77 2.543-.77h34.16c.897 0 1.586.354 2.066 1.058.478.705.72 1.535.72 2.497 0 1.026-.257 1.907-.767 2.64-.515.74-1.188 1.106-2.02 1.106H10.246v24.404h14.97c.83 0 1.502.337 2.013 1.01.514.67.768 1.487.768 2.45 0 .833-.238 1.585-.718 2.257-.48.672-1.168 1.008-2.063 1.008h-14.97v24.5H39.99c.832 0 1.505.37 2.02 1.106.51.738.766 1.62.766 2.642 0 .96-.242 1.793-.72 2.5-.48.704-1.17 1.055-2.065 1.055H5.83c-.958 0-1.807-.256-2.543-.77-.736-.51-1.102-1.215-1.102-2.113" id="Fill-18"/><path d="M49.825 414.076c0-.96.526-1.76 1.583-2.402 1.055-.638 2.126-.96 3.214-.96 1.152 0 2.11.708 2.878 2.115l16.89 32.954 16.793-32.955c.767-1.408 1.728-2.116 2.877-2.116 1.152 0 2.24.322 3.264.96 1.024.643 1.535 1.443 1.535 2.402 0 .515-.13 1.057-.385 1.634L78.61 452.796c-.127.194-.19.515-.19.962v24.306c0 .898-.4 1.602-1.2 2.114-.8.513-1.743.77-2.83.77-1.09 0-2.03-.257-2.832-.77-.8-.512-1.2-1.216-1.2-2.114v-24.306c0-.32-.095-.64-.288-.962L50.207 415.71c-.256-.577-.382-1.12-.382-1.634" id="Fill-19"/><path d="M107.304 478.064V413.5c0-1.855 1.344-2.786 4.03-2.786 1.345 0 2.48.4 3.408 1.203.925.8 1.837 2.096 2.734 3.89l23.894 46.79V413.5c0-.894.4-1.583 1.2-2.064.798-.48 1.743-.722 2.83-.722 1.086 0 2.03.24 2.832.722.797.48 1.2 1.17 1.2 2.065v64.564c0 .898-.403 1.602-1.2 2.114-.8.513-1.746.77-2.833.77-2.048 0-3.742-1.217-5.085-3.65l-24.95-48.328v49.094c0 .898-.4 1.602-1.2 2.114-.8.513-1.744.77-2.83.77-1.09 0-2.032-.257-2.83-.77-.802-.512-1.2-1.216-1.2-2.114" id="Fill-20"/><path d="M163.056 478.162v-64.66c0-.77.336-1.426 1.008-1.972.673-.542 1.55-.816 2.64-.816h16.984c6.27 0 11.29 1.68 15.064 5.046 3.775 3.362 5.663 8.663 5.663 15.9v28.344c0 7.236-1.888 12.536-5.663 15.9-3.773 3.362-8.795 5.043-15.064 5.043h-16.985c-1.088 0-1.966-.272-2.64-.816-.67-.543-1.007-1.2-1.007-1.968zm8.062-4.517h12.57c4.03 0 7.147-1.135 9.356-3.41 2.206-2.273 3.31-5.685 3.31-10.23V431.66c0-4.547-1.104-7.958-3.31-10.233-2.21-2.272-5.327-3.41-9.356-3.41h-12.57v55.628z" id="Fill-21"/><path d="M217.37 478.064v-64.466c0-.897.367-1.6 1.105-2.113.732-.514 1.583-.77 2.543-.77h34.16c.893 0 1.582.354 2.064 1.058.48.705.72 1.535.72 2.497 0 1.026-.257 1.907-.77 2.64-.513.74-1.186 1.106-2.015 1.106H225.43v24.404h14.97c.83 0 1.503.337 2.016 1.01.51.67.766 1.487.766 2.45 0 .833-.24 1.585-.718 2.257-.48.672-1.17 1.008-2.065 1.008h-14.97v24.5h29.747c.83 0 1.502.37 2.016 1.106.512.738.77 1.62.77 2.642 0 .96-.242 1.793-.72 2.5-.483.704-1.172 1.055-2.066 1.055h-34.16c-.96 0-1.81-.256-2.542-.77-.738-.51-1.106-1.215-1.106-2.113" id="Fill-22"/></g><g id="tandlabo" fill="#4D4F53"><path d="M49.243 590.78H31.55l-4.473 14.62h-2.764l14.604-47.023h3.485L56.478 605.4h-2.76l-4.475-14.62zm-8.616-29.636h-.132l-8.29 27.396h16.512l-8.09-27.396z" id="Fill-24"/><path d="M63.442 558.377l20.456 42.675h.132v-42.675h2.763V605.4h-3.618l-20.522-42.676h-.132V605.4h-2.76v-47.023h3.682" id="Fill-25"/><path d="M94.348 558.377h10.72c9.934 0 16.906 4.215 16.906 23.51 0 19.297-8.025 23.513-16.905 23.513H94.347v-47.023zm10.72 44.782c10 0 14.142-6.85 14.142-21.272 0-14.422-3.354-21.27-14.14-21.27h-7.96v42.54h7.96z" id="Fill-26"/><path d="M128.477 558.377h2.762v44.52h19.667v2.503h-22.43v-47.023" id="Fill-27"/><path d="M177.143 590.78h-17.69l-4.475 14.62h-2.764l14.603-47.023h3.486L184.38 605.4h-2.763l-4.474-14.62zm-8.615-29.636h-.132l-8.287 27.396h16.508l-8.09-27.396z" id="Fill-28"/><path d="M188.12 558.377h12.63c9.208 0 12.3 4.742 12.3 11.722 0 6.32-3.488 9.88-8.682 10.537v.132c6.775.46 10.194 5.4 10.194 11.853 0 7.903-5.13 12.777-13.418 12.777H188.12v-47.023zm11.774 21.273c6.052 0 10.393-2.9 10.393-9.55 0-6.388-3.158-9.482-9.208-9.482h-10.195v19.032h9.01zm.264 23.51c7.63 0 11.642-2.83 11.642-10.604 0-8.364-5.064-10.668-11.774-10.668h-9.14v21.27h9.272z" id="Fill-29"/><path d="M249.812 581.888c0 20.613-8.486 24.302-15.13 24.302-9.01 0-15.195-6.06-15.195-24.302 0-18.243 6.578-24.3 15.196-24.3 9.34 0 15.13 6.057 15.13 24.3zm-27.562 0c0 12.91 2.632 22.06 12.433 22.06 8.617 0 12.365-7.11 12.365-22.06 0-12.71-2.83-22.063-12.365-22.063-9.21 0-12.433 9.155-12.433 22.063z" id="Fill-30"/><path d="M12.808 560.88H.31v-2.503h27.76v2.503H15.57v44.52h-2.764v-44.52" id="Fill-23"/></g><g id="symbol" fill="#4D4F53"><path d="M75.743 169.986c-.46 0-.916-.12-1.325-.357L3.452 128.61c-.818-.476-1.322-1.35-1.322-2.3V44.27c0-.948.504-1.823 1.322-2.296L74.418.95c.82-.475 1.83-.475 2.647 0l70.966 41.022c.82.473 1.324 1.348 1.324 2.296v82.043c0 .95-.504 1.824-1.323 2.3l-70.965 41.02c-.41.237-.866.356-1.322.356zM7.427 124.782l68.316 39.488 68.314-39.488V45.8L75.743 6.31 7.427 45.8v78.982z" id="Fill-31"/><path d="M50.536 129.648c-.22 0-.435-.03-.65-.087-.927-.253-1.622-1.024-1.78-1.974-1.997-12.108-3.715-24.806-5.103-37.744-1.366-12.747-2.7-26.245-3.966-40.12-.073-.8.25-1.588.864-2.108.62-.518 1.45-.702 2.223-.495L97.8 62.055c.774.21 1.398.778 1.673 1.53.278.75.172 1.59-.283 2.25-7.724 11.208-15.552 22.256-23.266 32.837-7.704 10.56-15.613 20.683-23.504 30.096-.477.564-1.17.878-1.884.878zM44.26 52.793c1.166 12.61 2.388 24.883 3.638 36.525 1.17 10.953 2.585 21.73 4.205 32.12 6.672-8.128 13.333-16.742 19.847-25.67 7.03-9.64 14.152-19.672 21.205-29.857L44.26 52.794z" id="Fill-32"/><path d="M103.018 129.648c-.726 0-1.43-.323-1.9-.9-7.77-9.474-15.6-19.612-23.27-30.132-7.613-10.44-15.508-21.462-23.472-32.76-.464-.66-.577-1.5-.303-2.26.274-.756.9-1.33 1.677-1.54l55.677-14.937c.766-.206 1.6-.028 2.21.486.617.513.944 1.293.88 2.09-1.1 13.643-2.36 27.13-3.75 40.087-1.397 12.993-3.188 25.72-5.327 37.83-.168.947-.87 1.71-1.8 1.954-.204.055-.415.08-.622.08zM60.433 65.9C67.69 76.17 74.877 86.183 81.82 95.71c6.495 8.907 13.1 17.535 19.687 25.712 1.72-10.384 3.185-21.176 4.366-32.165 1.267-11.81 2.427-24.064 3.454-36.474L60.433 65.9z" id="Fill-33"/></g></g></g></g></svg>